<?xml version="1.0" encoding="utf-8"?>
<!-- Generator: Adobe Illustrator 26.1.0, SVG Export Plug-In . SVG Version: 6.00 Build 0)  -->
<svg version="1.1" id="Layer_1" xmlns="http://www.w3.org/2000/svg" xmlns:xlink="http://www.w3.org/1999/xlink" x="0px" y="0px"
	 viewBox="0 0 389.6 56.9" style="enable-background:new 0 0 389.6 56.9;" xml:space="preserve">
<style type="text/css">
	.st0{fill:#DAAB6B;}
	.st1{fill:#2FAD6F;}
</style>
<g>
	<g>
		<path class="st0" d="M21,6.1l-19.2,32c-5,8.3,1,18.8,10.6,18.8h38.4c9.6,0,15.6-10.5,10.6-18.8l-19.2-32C37.4-2,25.8-2,21,6.1z
			 M39.9,7.5l19.3,32.1c2.7,4.5-0.5,10.3-5.8,10.3H14.8c-5.3,0-8.6-5.8-5.8-10.3L28.3,7.5C30.9,3.1,37.3,3.1,39.9,7.5z"/>
		<path class="st0" d="M32.3,14.2L19.5,35.5c-2,3.3,0.4,7.5,4.2,7.5h25.6c3.8,0,6.2-4.2,4.2-7.5L40.7,14.2
			C38.8,11,34.2,11,32.3,14.2z M40.6,19.3L49,33.2c0.8,1.3-0.2,2.9-1.6,2.9H30.6c-1.5,0-2.4-1.6-1.6-2.9l8.4-13.9
			C38.1,18,39.9,18,40.6,19.3z"/>
	</g>
</g>
<g>
	<g>
		<path class="st1" d="M92.4,42.6c-4.2,0-7.7-1.3-10.4-4c-2.7-2.7-4-6.1-4-10.3s1.4-7.6,4.1-10.3c2.8-2.7,6.3-4,10.6-4
			c2.8,0,5.4,0.7,7.6,2c2.3,1.3,4,3.2,5.1,5.5l-5.3,2.9c-1.7-2.9-4.2-4.3-7.3-4.3c-2.4,0-4.3,0.8-5.9,2.4c-1.5,1.5-2.3,3.5-2.3,5.9
			c0,2.4,0.8,4.3,2.3,5.9s3.4,2.4,5.7,2.4c1.5,0,2.9-0.4,4.3-1.2c1.4-0.8,2.4-1.8,3-3.1l5.3,3.1c-1.2,2.2-2.9,4-5.2,5.3
			C97.7,42,95.2,42.6,92.4,42.6z"/>
		<path class="st1" d="M135.9,27.8c0,0.9-0.1,1.8-0.2,2.9h-20.8c0.4,1.9,1.4,3.5,2.8,4.6s3.3,1.7,5.6,1.7c3.3,0,6.3-0.9,9-2.8
			l2.6,4.7c-3.4,2.5-7.4,3.8-11.9,3.8c-2.5,0-4.7-0.4-6.6-1.2c-1.9-0.8-3.5-1.9-4.7-3.2c-1.2-1.4-2.1-2.9-2.6-4.5
			c-0.6-1.7-0.9-3.4-0.9-5.3c0-4.2,1.3-7.6,3.9-10.2c2.7-2.7,6.1-4.1,10.3-4.1c3.9,0,7.2,1.2,9.7,3.7
			C134.6,20.2,135.9,23.5,135.9,27.8z M122.3,19.5c-1.9,0-3.5,0.6-4.9,1.7c-1.3,1.1-2.2,2.6-2.6,4.5h14.6c-0.3-1.9-1-3.4-2.3-4.5
			C125.8,20.1,124.2,19.5,122.3,19.5z"/>
		<path class="st1" d="M147.5,42H141V14.7h6.4v3.8c0.7-1.4,1.9-2.5,3.4-3.3s3.3-1.2,5.2-1.2c3,0,5.5,1,7.6,3s3.1,4.8,3.1,8.4v16.7
			h-6.6V27.2c0-2.2-0.5-4-1.6-5.3S156,20,154.1,20s-3.5,0.7-4.8,2c-1.2,1.4-1.9,3.1-1.9,5.3L147.5,42L147.5,42L147.5,42z"/>
		<path class="st1" d="M218.4,27.8c0,0.9-0.1,1.8-0.2,2.9h-20.8c0.4,1.9,1.4,3.5,2.8,4.6s3.3,1.7,5.6,1.7c3.3,0,6.3-0.9,9-2.8
			l2.6,4.7c-3.4,2.5-7.4,3.8-11.9,3.8c-2.5,0-4.7-0.4-6.6-1.2c-1.9-0.8-3.5-1.9-4.7-3.2c-1.2-1.4-2.1-2.9-2.6-4.5
			c-0.6-1.7-0.9-3.4-0.9-5.3c0-4.2,1.3-7.6,3.9-10.2c2.7-2.7,6.1-4.1,10.3-4.1c3.9,0,7.2,1.2,9.7,3.7
			C217.2,20.2,218.4,23.5,218.4,27.8z M204.9,19.5c-1.9,0-3.5,0.6-4.9,1.7c-1.3,1.1-2.2,2.6-2.6,4.5H212c-0.3-1.9-1-3.4-2.3-4.5
			C208.4,20.1,206.8,19.5,204.9,19.5z"/>
		<path class="st1" d="M230.1,42h-6.6V14.7h6.3v3.8c1.7-3,4.2-4.5,7.6-4.5c1.1,0,2.2,0.2,3.3,0.6l-0.6,6.3c-1.2-0.4-2.2-0.6-3.2-0.6
			c-2.1,0-3.8,0.7-5,2.1c-1.2,1.4-1.9,3.5-1.9,6.3V42H230.1z"/>
		<path class="st1" d="M256.3,42.6c-4.2,0-7.7-1.3-10.4-4c-2.7-2.7-4-6.1-4-10.3s1.4-7.6,4.1-10.3c2.8-2.7,6.3-4,10.6-4
			c2.8,0,5.4,0.7,7.6,2c2.3,1.3,4,3.2,5.1,5.5l-5.3,2.9c-1.7-2.9-4.2-4.3-7.3-4.3c-2.4,0-4.3,0.8-5.9,2.4c-1.5,1.5-2.3,3.5-2.3,5.9
			c0,2.4,0.8,4.3,2.3,5.9s3.4,2.4,5.7,2.4c1.5,0,2.9-0.4,4.3-1.2c1.4-0.8,2.4-1.8,3-3.1l5.3,3.1c-1.2,2.2-2.9,4-5.2,5.3
			C261.6,42,259.1,42.6,256.3,42.6z"/>
		<path class="st1" d="M280.2,42h-6.5V14.7h6.3v3.8c1.7-3,4.2-4.5,7.6-4.5c1.1,0,2.2,0.2,3.3,0.6l-0.6,6.3c-1.2-0.4-2.2-0.6-3.2-0.6
			c-2.1,0-3.8,0.7-5,2.1c-1.2,1.4-1.9,3.5-1.9,6.3V42L280.2,42z"/>
		<path class="st1" d="M319.7,27.8c0,0.9-0.1,1.8-0.2,2.9h-20.8c0.4,1.9,1.4,3.5,2.8,4.6c1.4,1.1,3.3,1.7,5.6,1.7
			c3.3,0,6.3-0.9,9-2.8l2.6,4.7c-3.4,2.5-7.4,3.8-11.9,3.8c-2.5,0-4.7-0.4-6.6-1.2c-1.9-0.8-3.5-1.9-4.7-3.2
			c-1.2-1.4-2.1-2.9-2.6-4.5c-0.6-1.7-0.9-3.4-0.9-5.3c0-4.2,1.3-7.6,3.9-10.2c2.7-2.7,6.1-4.1,10.3-4.1c3.9,0,7.2,1.2,9.7,3.7
			C318.4,20.2,319.7,23.5,319.7,27.8z M306.2,19.5c-1.9,0-3.5,0.6-4.9,1.7c-1.3,1.1-2.2,2.6-2.6,4.5h14.6c-0.3-1.9-1-3.4-2.3-4.5
			C309.6,20.1,308,19.5,306.2,19.5z"/>
		<path class="st1" d="M345.5,18.2V3.8h6.5v38.3h-6.4v-3.6c-2.3,2.8-5.2,4.2-8.7,4.2c-3.9,0-7.2-1.4-9.7-4.1
			c-2.6-2.8-3.9-6.2-3.9-10.3c0-4,1.3-7.4,3.9-10.2c2.6-2.8,5.8-4.1,9.7-4.1C340.4,14,343.2,15.4,345.5,18.2z M337.8,36.7
			c2.4,0,4.3-0.8,5.8-2.4s2.2-3.6,2.2-5.9s-0.8-4.3-2.3-5.9c-1.4-1.6-3.4-2.4-5.7-2.4c-2.4,0-4.3,0.8-5.7,2.4
			c-1.5,1.6-2.2,3.6-2.2,5.9s0.7,4.3,2.2,5.9C333.5,35.9,335.5,36.7,337.8,36.7z"/>
		<path class="st1" d="M362.2,11.4c-1.2,0-2.2-0.4-3-1.2c-0.8-0.8-1.2-1.8-1.2-3s0.4-2.2,1.2-2.9c0.8-0.8,1.8-1.2,3-1.2
			c1.2,0,2.2,0.4,2.9,1.2c0.8,0.8,1.2,1.8,1.2,2.9c0,1.2-0.4,2.2-1.2,3C364.4,11,363.4,11.4,362.2,11.4z M365.4,14.7V42h-6.6V14.7
			C358.8,14.7,365.4,14.7,365.4,14.7z"/>
		<path class="st1" d="M387.5,35.3l2.1,5.1c-2.1,1.5-4.8,2.3-7.9,2.3c-6.2,0-9.4-3.6-9.4-10.7l0.1-27h6.5v9.7h9.2v5.5h-9.2v11.5
			c0,3.3,1.3,4.9,4,4.9C384.4,36.7,385.9,36.2,387.5,35.3z"/>
		<path class="st1" d="M187,35.3l2.1,5.1c-2.1,1.5-4.8,2.3-7.9,2.3c-6.2,0-9.4-3.6-9.4-10.7l0.1-27h6.5v9.7h9.2v5.5h-9.2v11.5
			c0,3.3,1.3,4.9,4,4.9C183.9,36.7,185.5,36.2,187,35.3z"/>
	</g>
</g>
</svg>
